<mxfile host="app.diagrams.net" modified="2022-11-23T07:00:01.696Z" agent="5.0 (Windows NT 10.0; Win64; x64) AppleWebKit/537.36 (KHTML, like Gecko) Chrome/107.0.0.0 Safari/537.36" etag="9CJvTRV_AsCho9_5bV92" version="20.5.1" type="github">
  <diagram id="C5RBs43oDa-KdzZeNtuy" name="Page-1">
    <mxGraphModel dx="1422" dy="764" grid="1" gridSize="10" guides="1" tooltips="1" connect="1" arrows="1" fold="1" page="1" pageScale="1" pageWidth="827" pageHeight="1169" math="0" shadow="0">
      <root>
        <mxCell id="WIyWlLk6GJQsqaUBKTNV-0" />
        <mxCell id="WIyWlLk6GJQsqaUBKTNV-1" parent="WIyWlLk6GJQsqaUBKTNV-0" />
        <mxCell id="FRxhHoDIdQRYXOmK7rCb-1" value="创建CT" style="swimlane;" vertex="1" parent="WIyWlLk6GJQsqaUBKTNV-1">
          <mxGeometry x="90" y="100" width="670" height="520" as="geometry" />
        </mxCell>
        <mxCell id="WIyWlLk6GJQsqaUBKTNV-3" value="&lt;br&gt;创建CT" style="rounded=1;whiteSpace=wrap;html=1;fontSize=12;glass=0;strokeWidth=1;shadow=0;" parent="FRxhHoDIdQRYXOmK7rCb-1" vertex="1">
          <mxGeometry x="104" y="40" width="120" height="40" as="geometry" />
        </mxCell>
        <mxCell id="FRxhHoDIdQRYXOmK7rCb-0" value="" style="rounded=1;whiteSpace=wrap;html=1;" vertex="1" parent="FRxhHoDIdQRYXOmK7rCb-1">
          <mxGeometry x="104" y="140" width="120" height="60" as="geometry" />
        </mxCell>
        <mxCell id="WIyWlLk6GJQsqaUBKTNV-2" value="" style="rounded=0;html=1;jettySize=auto;orthogonalLoop=1;fontSize=11;endArrow=block;endFill=0;endSize=8;strokeWidth=1;shadow=0;labelBackgroundColor=none;edgeStyle=orthogonalEdgeStyle;" parent="FRxhHoDIdQRYXOmK7rCb-1" source="WIyWlLk6GJQsqaUBKTNV-3" target="FRxhHoDIdQRYXOmK7rCb-0" edge="1">
          <mxGeometry relative="1" as="geometry">
            <mxPoint x="-90" y="80" as="targetPoint" />
          </mxGeometry>
        </mxCell>
      </root>
    </mxGraphModel>
  </diagram>
</mxfile>
